<svg width="37" height="36" viewBox="0 0 37 36" fill="none" xmlns="http://www.w3.org/2000/svg">
<mask id="mask0_4101_2" style="mask-type:alpha" maskUnits="userSpaceOnUse" x="0" y="0" width="37" height="36">
<path d="M15.647 2.78096C16.545 0.0170252 20.455 0.0170252 21.353 2.78096L23.552 9.54691C23.953 10.783 25.105 11.6199 26.405 11.6199H33.519C36.425 11.6199 37.633 15.3387 35.282 17.0469L29.527 21.2285C28.475 21.9924 28.035 23.3465 28.437 24.5826L30.635 31.3486C31.533 34.1125 28.37 36.4109 26.019 34.7027L20.263 30.5211C19.212 29.7572 17.788 29.7572 16.737 30.5211L10.981 34.7027C8.62998 36.4109 5.46699 34.1125 6.36499 31.3486L8.56298 24.5826C8.96498 23.3465 8.52499 21.9924 7.47299 21.2285L1.71798 17.0469C-0.633017 15.3387 0.574983 11.6199 3.48098 11.6199H10.595C11.895 11.6199 13.047 10.783 13.448 9.54691L15.647 2.78096Z" fill="#FFC226"/>
</mask>
<g mask="url(#mask0_4101_2)">
<path d="M18 -5H-2V41H18V-5Z" fill="#FFC226"/>
</g>
</svg>
