<svg width="36" height="36" viewBox="0 0 36 36" fill="none" xmlns="http://www.w3.org/2000/svg">
<path d="M15.142 2.97323C16.029 0.187309 19.971 0.187309 20.858 2.97323L22.947 9.5304C23.344 10.7749 24.5 11.6199 25.806 11.6199H32.69C35.581 11.6199 36.799 15.3084 34.476 17.0302L28.805 21.2326C27.774 21.9964 27.343 23.3311 27.733 24.5534L29.875 31.277C30.758 34.0514 27.569 36.3315 25.23 34.5978L19.786 30.5636C18.725 29.7774 17.275 29.7774 16.214 30.5636L10.77 34.5978C8.43101 36.3315 5.242 34.0514 6.125 31.277L8.267 24.5534C8.657 23.3311 8.22601 21.9964 7.19501 21.2326L1.524 17.0302C-0.798995 15.3084 0.419 11.6199 3.31 11.6199H10.194C11.5 11.6199 12.656 10.7749 13.053 9.5304L15.142 2.97323Z" fill="#FFC226"/>
</svg>
